<svg width="297" height="298" viewBox="0 0 297 298" fill="none" xmlns="http://www.w3.org/2000/svg">
<g filter="url(#filter0_f_208_2020)">
<path d="M66 204.5V97.3933V92.2861C66 90.077 67.7909 88.2861 70 88.2861H227C229.209 88.2861 231 90.077 231 92.2861V204.5C231 206.709 229.209 208.5 227 208.5H70C67.7909 208.5 66 206.709 66 204.5Z" fill="#1A1E36"/>
<path d="M178.578 202.884C178.578 219.246 165.376 232.5 149.103 232.5C132.831 232.5 119.628 219.246 119.628 202.884C119.628 186.521 132.831 173.268 149.103 173.268C165.376 173.268 178.578 186.521 178.578 202.884Z" fill="#2D1A36" stroke="url(#paint0_linear_208_2020)" stroke-width="3"/>
<path d="M160.438 212.751L148.35 188.465L136.262 213.509L149.105 208.197L160.438 212.751Z" fill="#2D1A36" stroke="url(#paint1_linear_208_2020)" stroke-width="3" stroke-linecap="round" stroke-linejoin="round"/>
<path d="M66 98.1504V205.713C66 207.922 67.7909 209.713 70 209.713H106.797" stroke="url(#paint2_linear_208_2020)" stroke-width="3" stroke-linecap="round" stroke-linejoin="round"/>
<path d="M137.019 87.5254H226.7C228.909 87.5254 230.7 89.3163 230.7 91.5254V204.954C230.7 207.163 228.909 208.954 226.7 208.954H189.903" stroke="url(#paint3_linear_208_2020)" stroke-width="3" stroke-linecap="round" stroke-linejoin="round"/>
<path d="M101.509 123.955V134.375C101.509 136.584 103.3 138.375 105.509 138.375H187.413C189.622 138.375 191.413 140.166 191.413 142.375V155.625C191.413 157.834 189.622 159.625 187.413 159.625H153.86C151.651 159.625 149.86 161.416 149.86 163.625V173.285" stroke="url(#paint4_linear_208_2020)" stroke-width="3" stroke-linecap="round" stroke-linejoin="round"/>
<path d="M122.672 86.7678C122.672 89.6253 121.716 93.262 120.094 97.1923C118.483 101.096 116.264 105.174 113.85 108.878C111.433 112.586 108.851 115.875 106.533 118.217C105.372 119.39 104.309 120.293 103.395 120.892C102.44 121.517 101.821 121.696 101.508 121.696C101.327 121.696 100.799 121.555 99.867 120.912C98.9947 120.31 97.9575 119.403 96.809 118.225C94.5171 115.875 91.9065 112.579 89.4415 108.867C86.9783 105.159 84.6884 101.079 83.0198 97.175C81.3388 93.2423 80.3428 89.6132 80.3428 86.7678C80.3428 75.0155 89.825 65.5 101.508 65.5C113.19 65.5 122.672 75.0155 122.672 86.7678Z" fill="#2D1A36" stroke="url(#paint5_linear_208_2020)" stroke-width="3"/>
<path d="M110.586 87.5272C110.586 92.154 106.854 95.8932 102.265 95.8932C97.6754 95.8932 93.9434 92.154 93.9434 87.5272C93.9434 82.9003 97.6754 79.1611 102.265 79.1611C106.854 79.1611 110.586 82.9003 110.586 87.5272Z" fill="#2D1A36" stroke="url(#paint6_linear_208_2020)" stroke-width="3"/>
</g>
<path d="M66 204.5V97.3933V92.2861C66 90.077 67.7909 88.2861 70 88.2861H227C229.209 88.2861 231 90.077 231 92.2861V204.5C231 206.709 229.209 208.5 227 208.5H70C67.7909 208.5 66 206.709 66 204.5Z" fill="#1A1E36"/>
<path d="M178.578 202.884C178.578 219.246 165.376 232.5 149.103 232.5C132.831 232.5 119.628 219.246 119.628 202.884C119.628 186.521 132.831 173.268 149.103 173.268C165.376 173.268 178.578 186.521 178.578 202.884Z" fill="#2D1A36" stroke="url(#paint7_linear_208_2020)" stroke-width="3"/>
<path d="M160.438 212.751L148.35 188.465L136.262 213.509L149.105 208.197L160.438 212.751Z" fill="#2D1A36" stroke="url(#paint8_linear_208_2020)" stroke-width="3" stroke-linecap="round" stroke-linejoin="round"/>
<path d="M66 98.1504V205.713C66 207.922 67.7909 209.713 70 209.713H106.797" stroke="url(#paint9_linear_208_2020)" stroke-width="3" stroke-linecap="round" stroke-linejoin="round"/>
<path d="M137.019 87.5254H226.7C228.909 87.5254 230.7 89.3163 230.7 91.5254V204.954C230.7 207.163 228.909 208.954 226.7 208.954H189.903" stroke="url(#paint10_linear_208_2020)" stroke-width="3" stroke-linecap="round" stroke-linejoin="round"/>
<path d="M101.509 123.955V134.375C101.509 136.584 103.3 138.375 105.509 138.375H187.413C189.622 138.375 191.413 140.166 191.413 142.375V155.625C191.413 157.834 189.622 159.625 187.413 159.625H153.86C151.651 159.625 149.86 161.416 149.86 163.625V173.285" stroke="url(#paint11_linear_208_2020)" stroke-width="3" stroke-linecap="round" stroke-linejoin="round"/>
<path d="M122.672 86.7678C122.672 89.6253 121.716 93.262 120.094 97.1923C118.483 101.096 116.264 105.174 113.85 108.878C111.433 112.586 108.851 115.875 106.533 118.217C105.372 119.39 104.309 120.293 103.395 120.892C102.44 121.517 101.821 121.696 101.508 121.696C101.327 121.696 100.799 121.555 99.867 120.912C98.9947 120.31 97.9575 119.403 96.809 118.225C94.5171 115.875 91.9065 112.579 89.4415 108.867C86.9783 105.159 84.6884 101.079 83.0198 97.175C81.3388 93.2423 80.3428 89.6132 80.3428 86.7678C80.3428 75.0155 89.825 65.5 101.508 65.5C113.19 65.5 122.672 75.0155 122.672 86.7678Z" fill="#2D1A36" stroke="url(#paint12_linear_208_2020)" stroke-width="3"/>
<path d="M110.586 87.5272C110.586 92.154 106.854 95.8932 102.265 95.8932C97.6754 95.8932 93.9434 92.154 93.9434 87.5272C93.9434 82.9003 97.6754 79.1611 102.265 79.1611C106.854 79.1611 110.586 82.9003 110.586 87.5272Z" fill="#2D1A36" stroke="url(#paint13_linear_208_2020)" stroke-width="3"/>
<defs>
<filter id="filter0_f_208_2020" x="0.5" y="0" width="295.7" height="298" filterUnits="userSpaceOnUse" color-interpolation-filters="sRGB">
<feFlood flood-opacity="0" result="BackgroundImageFix"/>
<feBlend mode="normal" in="SourceGraphic" in2="BackgroundImageFix" result="shape"/>
<feGaussianBlur stdDeviation="32" result="effect1_foregroundBlur_208_2020"/>
</filter>
<linearGradient id="paint0_linear_208_2020" x1="118.128" y1="202.884" x2="180.078" y2="202.884" gradientUnits="userSpaceOnUse">
<stop stop-color="#4FACFE"/>
<stop offset="1" stop-color="#00F2FE"/>
</linearGradient>
<linearGradient id="paint1_linear_208_2020" x1="136.262" y1="200.987" x2="160.438" y2="200.987" gradientUnits="userSpaceOnUse">
<stop stop-color="#4FACFE"/>
<stop offset="1" stop-color="#00F2FE"/>
</linearGradient>
<linearGradient id="paint2_linear_208_2020" x1="66" y1="153.932" x2="106.797" y2="153.932" gradientUnits="userSpaceOnUse">
<stop stop-color="#4FACFE"/>
<stop offset="1" stop-color="#00F2FE"/>
</linearGradient>
<linearGradient id="paint3_linear_208_2020" x1="137.019" y1="148.24" x2="230.7" y2="148.24" gradientUnits="userSpaceOnUse">
<stop stop-color="#4FACFE"/>
<stop offset="1" stop-color="#00F2FE"/>
</linearGradient>
<linearGradient id="paint4_linear_208_2020" x1="101.509" y1="148.62" x2="191.413" y2="148.62" gradientUnits="userSpaceOnUse">
<stop stop-color="#4FACFE"/>
<stop offset="1" stop-color="#00F2FE"/>
</linearGradient>
<linearGradient id="paint5_linear_208_2020" x1="78.8428" y1="93.5982" x2="124.172" y2="93.5982" gradientUnits="userSpaceOnUse">
<stop stop-color="#4FACFE"/>
<stop offset="1" stop-color="#00F2FE"/>
</linearGradient>
<linearGradient id="paint6_linear_208_2020" x1="92.4434" y1="87.5272" x2="112.086" y2="87.5272" gradientUnits="userSpaceOnUse">
<stop stop-color="#4FACFE"/>
<stop offset="1" stop-color="#00F2FE"/>
</linearGradient>
<linearGradient id="paint7_linear_208_2020" x1="118.128" y1="202.884" x2="180.078" y2="202.884" gradientUnits="userSpaceOnUse">
<stop stop-color="#4FACFE"/>
<stop offset="1" stop-color="#00F2FE"/>
</linearGradient>
<linearGradient id="paint8_linear_208_2020" x1="136.262" y1="200.987" x2="160.438" y2="200.987" gradientUnits="userSpaceOnUse">
<stop stop-color="#4FACFE"/>
<stop offset="1" stop-color="#00F2FE"/>
</linearGradient>
<linearGradient id="paint9_linear_208_2020" x1="66" y1="153.932" x2="106.797" y2="153.932" gradientUnits="userSpaceOnUse">
<stop stop-color="#4FACFE"/>
<stop offset="1" stop-color="#00F2FE"/>
</linearGradient>
<linearGradient id="paint10_linear_208_2020" x1="137.019" y1="148.24" x2="230.7" y2="148.24" gradientUnits="userSpaceOnUse">
<stop stop-color="#4FACFE"/>
<stop offset="1" stop-color="#00F2FE"/>
</linearGradient>
<linearGradient id="paint11_linear_208_2020" x1="101.509" y1="148.62" x2="191.413" y2="148.62" gradientUnits="userSpaceOnUse">
<stop stop-color="#4FACFE"/>
<stop offset="1" stop-color="#00F2FE"/>
</linearGradient>
<linearGradient id="paint12_linear_208_2020" x1="78.8428" y1="93.5982" x2="124.172" y2="93.5982" gradientUnits="userSpaceOnUse">
<stop stop-color="#4FACFE"/>
<stop offset="1" stop-color="#00F2FE"/>
</linearGradient>
<linearGradient id="paint13_linear_208_2020" x1="92.4434" y1="87.5272" x2="112.086" y2="87.5272" gradientUnits="userSpaceOnUse">
<stop stop-color="#4FACFE"/>
<stop offset="1" stop-color="#00F2FE"/>
</linearGradient>
</defs>
</svg>
